<?xml version="1.0" encoding="utf-8"?>
<!-- Generator: Adobe Illustrator 24.2.0, SVG Export Plug-In . SVG Version: 6.00 Build 0)  -->
<svg version="1.1" id="图层_1" xmlns="http://www.w3.org/2000/svg" xmlns:xlink="http://www.w3.org/1999/xlink" x="0px" y="0px"
	 viewBox="0 0 700 700" style="enable-background:new 0 0 700 700;" xml:space="preserve">
<style type="text/css">
	.st0{fill:#D3E2F9;}
	.st1{fill-rule:evenodd;clip-rule:evenodd;fill:#DAEBFF;}
	.st2{fill-rule:evenodd;clip-rule:evenodd;fill:#B0D8FF;}
	.st3{clip-path:url(#SVGID_2_);fill:#FE8E00;}
	.st4{clip-path:url(#SVGID_4_);fill:#FE8E00;}
	.st5{clip-path:url(#SVGID_6_);fill:#172272;}
	.st6{clip-path:url(#SVGID_8_);fill:#172272;}
	.st7{fill:#006DFE;}
	.st8{fill:url(#SVGID_9_);}
	.st9{fill:none;stroke:#FFFFFF;stroke-width:2.0175;stroke-linecap:round;stroke-linejoin:round;}
	.st10{fill:none;stroke:#FFFFFF;stroke-width:2.0175;stroke-linecap:round;stroke-linejoin:round;stroke-dasharray:3.883,4.7005;}
	.st11{fill:none;stroke:#FFFFFF;stroke-width:2.0175;stroke-linecap:round;stroke-linejoin:round;stroke-dasharray:3.7667,4.5597;}
	.st12{fill:#DAEBFF;}
	.st13{fill:#B0D8FF;}
	.st14{fill:#EBF5FF;}
	.st15{fill:#FFFFFF;}
	.st16{fill:#191E56;}
	.st17{fill:#FFAB00;}
	.st18{fill:#00B77B;}
	.st19{fill:#00D967;}
	.st20{clip-path:url(#SVGID_11_);fill:#B0D8FF;}
	.st21{clip-path:url(#SVGID_11_);fill:#7BC3FF;}
	.st22{fill:#D1E3FF;}
	.st23{fill:#E3EEFF;}
	.st24{fill:#F5FCFF;}
	.st25{fill:#E2EEFF;}
	.st26{fill:#A6C2D1;}
	.st27{fill:#45A7FF;}
	.st28{fill:#404041;}
	.st29{fill:#78C2FF;}
	.st30{fill:#96BAE2;}
	.st31{fill:#113D8C;}
	.st32{fill:#0542BF;}
	.st33{fill:#FE8E00;}
	.st34{fill:#FFC45C;}
	.st35{clip-path:url(#SVGID_13_);fill:#7BC3FF;}
	.st36{clip-path:url(#SVGID_15_);fill:#005BFC;}
	.st37{clip-path:url(#SVGID_17_);fill:#EA756C;}
	.st38{fill:#739AD8;}
	.st39{fill:#5F6DC1;}
	.st40{fill:#1E2889;}
	.st41{clip-path:url(#SVGID_19_);fill:#EA756C;}
	.st42{clip-path:url(#SVGID_21_);fill:#EA756C;}
	.st43{clip-path:url(#SVGID_23_);fill:#191977;}
	.st44{clip-path:url(#SVGID_25_);fill:#212182;}
	.st45{fill:#EA756C;}
	.st46{fill:#FFACA6;}
	.st47{clip-path:url(#SVGID_27_);fill:#0054FC;}
	.st48{clip-path:url(#SVGID_27_);fill:#0041F9;}
	.st49{clip-path:url(#SVGID_29_);fill:#EA756C;}
	.st50{clip-path:url(#SVGID_31_);fill:#EA756C;}
	.st51{fill:#FFCA00;}
</style>
<g>
	<ellipse class="st0" cx="106.8" cy="530.4" rx="76" ry="7.4"/>
	<rect x="2" y="499.6" class="st0" width="676.2" height="4.5"/>
	<g>
		<g>
			<g>
				<g>
					<g>
						<g>
							<path class="st1" d="M402.7,475.8c-0.4-0.9-0.7-1.7-1.2-2.5c-0.2-0.3-0.6-0.6-0.9-0.5c-0.6,0.1-1.4-0.3-1.7,0.6
								c-0.2,0.6-0.4,1.2-0.5,1.8c-0.1,0.7-0.5,1-1.2,0.8c-0.4-0.1-0.9-0.1-1.4-0.2c-0.1-1-0.1-1.9-0.2-2.7
								c-0.1-0.3-0.4-0.7-0.7-0.7c-0.5-0.2-1.2-0.7-1.7,0.1c-0.4,0.5-0.8,1.1-1.1,1.6c-0.3,0.5-0.6,0.6-1.1,0.3
								c-1.8-0.8-1.4-0.5-1.1-2.2c0-0.2,0.1-0.4,0.2-0.5c0.2-1-0.4-2-1.4-2.1c-0.2,0-0.5,0.2-0.6,0.3c-0.3,0.2-0.6,0.5-1,0.8
								c-0.3,0.2-0.6,0.5-1.1,0.8c-0.5-0.4-1-0.8-1.4-1.2c-0.1-0.2-0.1-0.6,0-0.8c0.2-0.4,0.5-0.8,0.7-1.2c0.7-1.1,0.6-1.7-0.4-2.5
								c-0.2-0.1-0.5-0.1-0.7-0.1c-0.2,0-0.5,0.1-0.7,0.2c-2,0.7-2,0.7-2.9-1.4c0.7-0.5,1.3-1.1,2-1.6c0.5-0.4,0.4-0.8,0.2-1.2
								c-0.2-0.5-0.1-1.3-1-1.2c-0.8,0-1.7,0-2.6-0.1c-0.1-0.8-0.3-1.5-0.4-2.2c0.7-0.3,1.4-0.6,2.1-0.7c1.2-0.2,0.9-1.1,1-1.8
								c0.1-0.8-0.5-0.9-1-1.1c-0.6-0.2-1.3-0.5-1.8-0.7c-0.1-0.1-0.1-0.2-0.1-0.2c0.2-2.1,0.2-2.1,2.2-2.1c1.2-0.1,1.7-0.5,1.8-1.7
								c0-0.2-0.1-0.5-0.3-0.7c-0.6-0.5-1.2-1-1.8-1.5c0-0.1,0-0.2,0-0.2c1-2.3,0.6-2,2.8-1.3c0.7,0.2,1.2,0.2,1.7-0.5
								c0.5-0.7,0.9-1.2,0.2-1.9c-0.4-0.5-0.7-1-1-1.5c0.1-0.1,0.1-0.2,0.1-0.2c1.4-1.4,1.5-1.5,3.1-0.2c0.9,0.7,1.4,0.2,2-0.2
								c0.7-0.4,0.6-0.9,0.5-1.5c-0.2-0.6-0.3-1.2-0.4-1.9c0.7-0.3,1.4-0.6,2.1-1c0.5,0.7,0.9,1.3,1.3,2c0.3,0.5,0.6,0.6,1.1,0.4
								c0.6-0.3,1.5,0,1.5-1c0-0.8,0.2-1.6,0.3-2.4c0.7-0.1,1.4-0.1,2.2-0.2c0.2,0.7,0.4,1.4,0.6,2.1c0.1,0.6,0.4,0.9,1.1,0.9
								c0.7,0,1.5,0.3,1.7-0.7c0,0,0-0.1,0-0.1c0.9-1.9,0.9-1.9,3.1-1.3c0,0.8,0,1.6-0.1,2.4c-0.1,1.1,0.8,0.9,1.3,1.3
								c0.4,0.3,0.8,0.3,1.2-0.1c0.5-0.6,1-1.1,1.6-1.7c0.5,0.3,1,0.6,1.5,0.9c0.2,0.1,0.2,0.5,0.2,0.7c-0.2,0.5-0.4,1.1-0.7,1.5
								c-0.3,0.6-0.2,0.9,0.3,1.5c0.7,0.9,1.4,1,2.4,0.3c0.4-0.3,1-0.5,1.4-0.8c0.1,0,0.1,0.1,0.2,0.1c1.4,1.5,1.4,1.5,0.1,3
								c-0.9,1-0.9,1.7,0.1,2.7c0.2,0.2,0.5,0.2,0.8,0.2c0.8-0.1,1.6-0.2,2.5-0.4c0.2,0.7,0.5,1.4,0.7,2.1c-0.7,0.4-1.4,0.8-2.2,1.2
								c-0.5,0.2-0.6,0.5-0.5,1c0.3,1.6,0.2,1.6,1.8,1.9c0.5,0.1,1.1,0.2,1.7,0.3c0,0.7,0,1.4,0,2.2c-0.9,0.2-1.7,0.4-2.6,0.5
								c-1.1,0.1-0.7,1-0.9,1.6c-0.2,0.5,0,0.9,0.5,1.1c0.7,0.4,1.4,0.8,2.1,1.2c0,0.1,0.1,0.2,0.1,0.3c-0.4,1.9-0.4,1.9-2.3,1.7
								c-0.7-0.1-1.5-0.5-2.1,0.6c-0.5,0.9-0.6,1.5,0.2,2.1c0.2,0.2,0.3,0.4,0.5,0.5c0.9,1,0.9,1,0.1,2c-0.4,0.5-0.7,0.7-1.3,0.3
								c-0.3-0.2-0.8-0.3-1.1-0.6c-0.8-0.6-1.4-0.5-2.1,0.2c-0.5,0.5-0.7,1-0.3,1.6c0.2,0.3,0.3,0.6,0.4,1c0.6,1.4,0.5,1.5-0.9,2.1
								c-0.2,0.1-0.6,0-0.8-0.1c-0.4-0.3-0.7-0.7-1.1-1.1c-0.9-0.9-1.8-1-2.7-0.2c-0.1,0.1-0.2,0.4-0.2,0.7c0,0.7,0,1.3,0.2,2
								c0.1,0.6-0.1,0.9-0.7,1C403.7,475.5,403.2,475.6,402.7,475.8z M388.6,451.2c-2.6,5.7-0.1,12.6,5.5,15.2
								c5.8,2.7,12.8,0.1,15.5-5.8c2.6-5.6,0-12.6-5.7-15.3C398.1,442.8,391.3,445.3,388.6,451.2z"/>
						</g>
					</g>
					<g>
						<g>
							<path class="st1" d="M395,465c-5.1-2.3-7.3-8-5-13.2c2.2-5.1,8.1-7.3,13.2-5c4.9,2.2,7.3,8.2,5.1,13.1
								C406,465,400.1,467.3,395,465z M403.1,457.8c1-2.3,0-5.1-2.3-6.1c-2.3-1-5,0.1-6,2.5c-1,2.3,0.1,4.9,2.4,6
								C399.5,461.1,402.1,460.1,403.1,457.8z"/>
						</g>
					</g>
				</g>
				<g>
					<g>
						<path class="st1" d="M331.2,443.6c0.1,0.1,0.2,0.2,0.1,0.3c-0.2,0.9-0.3,1.8-0.4,2.8c0,0.2-0.1,0.2-0.2,0.3
							c-1.4,0.4-2.7,0.8-4.1,1.2c-0.1,0-0.2,0.1-0.4,0.1c0.2,2.3,0.5,4.7,0.7,7c0.9,0.1,1.8,0.1,2.7,0.2c0.6,0.1,1.3,0.1,1.9,0.2
							c0.2,0,0.2,0.1,0.3,0.2c0.3,0.9,0.6,1.7,1,2.6c0.1,0.2,0.1,0.3-0.1,0.4c-1,1-2,2.1-3,3.1c-0.1,0.1-0.2,0.2,0,0.4
							c1.3,1.8,2.6,3.6,3.9,5.3c0,0.1,0.1,0.1,0.1,0.2c0.2-0.1,0.5-0.2,0.7-0.3c1.1-0.5,2.3-1.1,3.4-1.6c0.2-0.1,0.3-0.1,0.4,0.1
							c0.7,0.6,1.4,1.1,2.1,1.7c0.1,0.1,0.2,0.2,0.1,0.3c-0.3,1.5-0.7,2.9-1,4.4l6.5,2.9c0.2-0.3,0.4-0.6,0.7-1
							c0.6-0.9,1.2-1.8,1.9-2.7c0.1-0.1,0.2-0.2,0.4-0.1c0.9,0.2,1.8,0.3,2.7,0.4c0.2,0,0.3,0.1,0.3,0.3c0.4,1.4,0.8,2.8,1.2,4.1
							c0,0.1,0.1,0.2,0.1,0.3c2.3-0.2,4.7-0.5,7-0.7c0-0.1,0-0.2,0-0.3c0.1-1.4,0.2-2.9,0.3-4.3c0-0.2,0.1-0.3,0.3-0.3
							c0.8-0.3,1.7-0.6,2.5-1c0.2-0.1,0.3-0.1,0.4,0.1c1,1,2.1,2,3.2,3c0.1,0.1,0.2,0.2,0.3,0.1c1.8-1.3,3.7-2.7,5.5-4
							c0,0,0,0,0-0.1c-0.1-0.3-0.3-0.6-0.4-1c-0.5-1.1-1-2.1-1.5-3.2c-0.1-0.2-0.1-0.3,0.1-0.4c0.6-0.7,1.1-1.4,1.7-2.1
							c0.1-0.1,0.2-0.2,0.4-0.1c1.4,0.4,2.9,0.7,4.3,1c0.1,0,0.1,0,0.2,0l2.9-6.4c-1-0.7-1.9-1.3-2.9-2c-0.3-0.2-0.6-0.4-0.9-0.7
							c-0.1-0.1-0.2-0.2-0.1-0.3c0.2-0.9,0.3-1.8,0.4-2.8c0-0.2,0.1-0.2,0.2-0.3c1.4-0.4,2.7-0.8,4.1-1.2c0.1,0,0.2-0.1,0.4-0.1
							c-0.2-2.3-0.5-4.7-0.7-7c-0.6-0.1-1.2-0.1-1.9-0.2c-0.9-0.1-1.8-0.2-2.8-0.2c-0.2,0-0.2-0.1-0.3-0.2c-0.3-0.9-0.7-1.7-1-2.6
							c-0.1-0.2,0-0.2,0.1-0.4c1-1,2-2.1,3-3.1c0.2-0.2,0.2-0.3,0-0.5c-1.3-1.7-2.5-3.5-3.8-5.3c-0.1-0.1-0.1-0.1-0.2-0.2
							c-0.7,0.4-1.5,0.7-2.2,1c-0.7,0.3-1.3,0.6-2,0.9c-0.1,0.1-0.2,0-0.4-0.1c-0.7-0.6-1.4-1.2-2.1-1.7c-0.1-0.1-0.2-0.2-0.1-0.4
							c0.4-1.4,0.7-2.9,1-4.3c0-0.1,0-0.1,0-0.2l-6.4-2.9c-0.7,1-1.4,2.1-2.2,3.1c-0.2,0.2-0.3,0.5-0.5,0.7
							c-0.1,0.1-0.2,0.2-0.4,0.2c-0.9-0.2-1.8-0.3-2.7-0.4c-0.2,0-0.3-0.1-0.3-0.3c-0.4-1.4-0.8-2.8-1.2-4.2c0-0.1,0-0.1-0.1-0.2
							c-2.3,0.2-4.7,0.5-7,0.7c0,0.5-0.1,1-0.1,1.5c-0.1,1-0.2,2.1-0.2,3.1c0,0.2-0.1,0.2-0.2,0.3c-0.8,0.3-1.7,0.6-2.5,1
							c-0.2,0.1-0.3,0-0.4-0.1c-1-1-2.1-2-3.1-3c-0.2-0.2-0.3-0.2-0.5,0c-1.8,1.3-3.5,2.6-5.3,3.8c-0.1,0-0.1,0.1-0.2,0.2
							c0.4,0.7,0.7,1.5,1,2.2c0.3,0.7,0.6,1.3,0.9,2c0.1,0.2,0.1,0.3-0.1,0.4c-0.6,0.7-1.1,1.4-1.7,2.1c-0.1,0.1-0.2,0.2-0.4,0.1
							c-1.4-0.4-2.9-0.7-4.3-1c-0.1,0-0.1,0-0.2,0l-2.9,6.4c1,0.7,1.9,1.3,2.9,2C330.6,443.1,330.9,443.3,331.2,443.6z M360.4,434.3
							c8.1,3.6,11.7,13.1,8.1,21.2c-3.6,8.1-13.1,11.7-21.2,8.1c-8.1-3.6-11.7-13.1-8.1-21.2C342.9,434.3,352.4,430.6,360.4,434.3z"
							/>
					</g>
				</g>
			</g>
		</g>
		<g>
			<g>
				<g>
					<g>
						<g>
							<path class="st2" d="M401.6,475.5c-0.4-0.9-0.7-1.7-1.2-2.5c-0.2-0.3-0.6-0.6-0.9-0.5c-0.6,0.1-1.4-0.3-1.7,0.6
								c-0.2,0.6-0.4,1.2-0.5,1.8c-0.1,0.7-0.5,1-1.2,0.8c-0.4-0.1-0.9-0.1-1.4-0.2c-0.1-1-0.1-1.9-0.2-2.7
								c-0.1-0.3-0.4-0.7-0.7-0.7c-0.5-0.2-1.2-0.7-1.7,0.1c-0.4,0.5-0.8,1.1-1.1,1.6c-0.3,0.5-0.6,0.6-1.1,0.3
								c-1.8-0.8-1.4-0.5-1.1-2.2c0-0.2,0.1-0.4,0.2-0.5c0.2-1-0.4-2-1.4-2.1c-0.2,0-0.5,0.2-0.6,0.3c-0.3,0.2-0.6,0.5-1,0.8
								c-0.3,0.2-0.6,0.5-1.1,0.8c-0.5-0.4-1-0.8-1.4-1.2c-0.1-0.2-0.1-0.6,0-0.8c0.2-0.4,0.5-0.8,0.7-1.2c0.7-1.1,0.6-1.7-0.4-2.5
								c-0.2-0.1-0.5-0.1-0.7-0.1c-0.2,0-0.5,0.1-0.7,0.2c-2,0.7-2,0.7-2.9-1.4c0.7-0.5,1.3-1.1,2-1.6c0.5-0.4,0.4-0.8,0.2-1.2
								c-0.2-0.5-0.1-1.3-1-1.2c-0.8,0-1.7,0-2.6-0.1c-0.1-0.8-0.3-1.5-0.4-2.2c0.7-0.3,1.4-0.6,2.1-0.7c1.2-0.2,0.9-1.1,1-1.8
								c0.1-0.8-0.5-0.9-1-1.1c-0.6-0.2-1.3-0.5-1.8-0.7c-0.1-0.1-0.1-0.2-0.1-0.2c0.2-2.1,0.2-2.1,2.2-2.1c1.2-0.1,1.7-0.5,1.8-1.7
								c0-0.2-0.1-0.5-0.3-0.7c-0.6-0.5-1.2-1-1.8-1.5c0-0.1,0-0.2,0-0.2c1-2.3,0.6-2,2.8-1.3c0.7,0.2,1.2,0.2,1.7-0.5
								c0.5-0.7,0.9-1.2,0.2-1.9c-0.4-0.5-0.7-1-1-1.5c0.1-0.1,0.1-0.2,0.1-0.2c1.4-1.4,1.5-1.5,3.1-0.2c0.9,0.7,1.4,0.2,2-0.2
								c0.7-0.4,0.6-0.9,0.5-1.5c-0.2-0.6-0.3-1.2-0.4-1.9c0.7-0.3,1.4-0.6,2.1-1c0.5,0.7,0.9,1.3,1.3,2c0.3,0.5,0.6,0.6,1.1,0.4
								c0.6-0.3,1.5,0,1.5-1c0-0.8,0.2-1.6,0.3-2.4c0.7-0.1,1.4-0.1,2.2-0.2c0.2,0.7,0.4,1.4,0.6,2.1c0.1,0.6,0.4,0.9,1.1,0.9
								c0.7,0,1.5,0.3,1.7-0.7c0,0,0-0.1,0-0.1c0.9-1.9,0.9-1.9,3.1-1.3c0,0.8,0,1.6-0.1,2.4c-0.1,1.1,0.8,0.9,1.3,1.3
								c0.4,0.3,0.8,0.3,1.2-0.1c0.5-0.6,1-1.1,1.6-1.7c0.5,0.3,1,0.6,1.5,0.9c0.2,0.1,0.2,0.5,0.2,0.7c-0.2,0.5-0.4,1.1-0.7,1.5
								c-0.3,0.6-0.2,0.9,0.3,1.5c0.7,0.9,1.4,1,2.4,0.3c0.4-0.3,1-0.5,1.4-0.8c0.1,0,0.1,0.1,0.2,0.1c1.4,1.5,1.4,1.5,0.1,3
								c-0.9,1-0.9,1.7,0.1,2.7c0.2,0.2,0.5,0.2,0.8,0.2c0.8-0.1,1.6-0.2,2.5-0.4c0.2,0.7,0.5,1.4,0.7,2.1c-0.7,0.4-1.4,0.8-2.2,1.2
								c-0.5,0.2-0.6,0.5-0.5,1c0.3,1.6,0.2,1.6,1.8,1.9c0.5,0.1,1.1,0.2,1.7,0.3c0,0.7,0,1.4,0,2.2c-0.9,0.2-1.7,0.4-2.6,0.5
								c-1.1,0.1-0.7,1-0.9,1.6c-0.2,0.5,0,0.9,0.5,1.1c0.7,0.4,1.4,0.8,2.1,1.2c0,0.1,0.1,0.2,0.1,0.3c-0.4,1.9-0.4,1.9-2.3,1.7
								c-0.7-0.1-1.5-0.5-2.1,0.6c-0.5,0.9-0.6,1.5,0.2,2.1c0.2,0.2,0.3,0.4,0.5,0.5c0.9,1,0.9,1,0.1,2c-0.4,0.5-0.7,0.7-1.3,0.3
								c-0.3-0.2-0.8-0.3-1.1-0.6c-0.8-0.6-1.4-0.5-2.1,0.2c-0.5,0.5-0.7,1-0.3,1.6c0.2,0.3,0.3,0.6,0.4,1c0.6,1.4,0.5,1.5-0.9,2.1
								c-0.2,0.1-0.6,0-0.8-0.1c-0.4-0.3-0.7-0.7-1.1-1.1c-0.9-0.9-1.8-1-2.7-0.2c-0.1,0.1-0.2,0.4-0.2,0.7c0,0.7,0,1.3,0.2,2
								c0.1,0.6-0.1,0.9-0.7,1C402.5,475.2,402.1,475.4,401.6,475.5z M387.5,451c-2.6,5.7-0.1,12.6,5.5,15.2
								c5.8,2.7,12.8,0.1,15.5-5.8c2.6-5.6,0-12.6-5.7-15.3C397,442.5,390.2,445.1,387.5,451z"/>
						</g>
					</g>
					<g>
						<g>
							<path class="st2" d="M393.9,464.7c-5.1-2.3-7.3-8-5-13.2c2.2-5.1,8.1-7.3,13.2-5c4.9,2.2,7.3,8.2,5.1,13.1
								C404.9,464.7,399,467,393.9,464.7z M402,457.5c1-2.3,0-5.1-2.3-6.1c-2.3-1-5,0.1-6,2.5c-1,2.3,0.1,4.9,2.4,6
								C398.3,460.9,401,459.8,402,457.5z"/>
						</g>
					</g>
				</g>
				<g>
					<g>
						<path class="st2" d="M330.1,443.3c0.1,0.1,0.2,0.2,0.1,0.3c-0.2,0.9-0.3,1.8-0.4,2.8c0,0.2-0.1,0.2-0.2,0.3
							c-1.4,0.4-2.7,0.8-4.1,1.2c-0.1,0-0.2,0.1-0.4,0.1c0.2,2.3,0.5,4.7,0.7,7c0.9,0.1,1.8,0.1,2.7,0.2c0.6,0.1,1.3,0.1,1.9,0.2
							c0.2,0,0.2,0.1,0.3,0.2c0.3,0.9,0.6,1.7,1,2.6c0.1,0.2,0.1,0.3-0.1,0.4c-1,1-2,2.1-3,3.1c-0.1,0.1-0.2,0.2,0,0.4
							c1.3,1.8,2.6,3.6,3.9,5.3c0,0.1,0.1,0.1,0.1,0.2c0.2-0.1,0.5-0.2,0.7-0.3c1.1-0.5,2.3-1.1,3.4-1.6c0.2-0.1,0.3-0.1,0.4,0.1
							c0.7,0.6,1.4,1.1,2.1,1.7c0.1,0.1,0.2,0.2,0.1,0.3c-0.3,1.5-0.7,2.9-1,4.4l6.5,2.9c0.2-0.3,0.4-0.6,0.7-1
							c0.6-0.9,1.2-1.8,1.9-2.7c0.1-0.1,0.2-0.2,0.4-0.1c0.9,0.2,1.8,0.3,2.7,0.4c0.2,0,0.3,0.1,0.3,0.3c0.4,1.4,0.8,2.8,1.2,4.1
							c0,0.1,0.1,0.2,0.1,0.3c2.3-0.2,4.7-0.5,7-0.7c0-0.1,0-0.2,0-0.3c0.1-1.4,0.2-2.9,0.3-4.3c0-0.2,0.1-0.3,0.3-0.3
							c0.8-0.3,1.7-0.6,2.5-1c0.2-0.1,0.3-0.1,0.4,0.1c1,1,2.1,2,3.2,3c0.1,0.1,0.2,0.2,0.3,0.1c1.8-1.3,3.7-2.7,5.5-4
							c0,0,0,0,0-0.1c-0.1-0.3-0.3-0.6-0.4-1c-0.5-1.1-1-2.1-1.5-3.2c-0.1-0.2-0.1-0.3,0.1-0.4c0.6-0.7,1.1-1.4,1.7-2.1
							c0.1-0.1,0.2-0.2,0.4-0.1c1.4,0.4,2.9,0.7,4.3,1c0.1,0,0.1,0,0.2,0l2.9-6.4c-1-0.7-1.9-1.3-2.9-2c-0.3-0.2-0.6-0.4-0.9-0.7
							c-0.1-0.1-0.2-0.2-0.1-0.3c0.2-0.9,0.3-1.8,0.4-2.8c0-0.2,0.1-0.2,0.2-0.3c1.4-0.4,2.7-0.8,4.1-1.2c0.1,0,0.2-0.1,0.4-0.1
							c-0.2-2.3-0.5-4.7-0.7-7c-0.6-0.1-1.2-0.1-1.9-0.2c-0.9-0.1-1.8-0.2-2.8-0.2c-0.2,0-0.2-0.1-0.3-0.2c-0.3-0.9-0.7-1.7-1-2.6
							c-0.1-0.2,0-0.2,0.1-0.4c1-1,2-2.1,3-3.1c0.2-0.2,0.2-0.3,0-0.5c-1.3-1.7-2.5-3.5-3.8-5.3c-0.1-0.1-0.1-0.1-0.2-0.2
							c-0.7,0.4-1.5,0.7-2.2,1c-0.7,0.3-1.3,0.6-2,0.9c-0.1,0.1-0.2,0-0.4-0.1c-0.7-0.6-1.4-1.2-2.1-1.7c-0.1-0.1-0.2-0.2-0.1-0.4
							c0.4-1.4,0.7-2.9,1-4.3c0-0.1,0-0.1,0-0.2l-6.4-2.9c-0.7,1-1.4,2.1-2.2,3.1c-0.2,0.2-0.3,0.5-0.5,0.7
							c-0.1,0.1-0.2,0.2-0.4,0.2c-0.9-0.2-1.8-0.3-2.7-0.4c-0.2,0-0.3-0.1-0.3-0.3c-0.4-1.4-0.8-2.8-1.2-4.2c0-0.1,0-0.1-0.1-0.2
							c-2.3,0.2-4.7,0.5-7,0.7c0,0.5-0.1,1-0.1,1.5c-0.1,1-0.2,2.1-0.2,3.1c0,0.2-0.1,0.2-0.2,0.3c-0.8,0.3-1.7,0.6-2.5,1
							c-0.2,0.1-0.3,0-0.4-0.1c-1-1-2.1-2-3.1-3c-0.2-0.2-0.3-0.2-0.5,0c-1.8,1.3-3.5,2.6-5.3,3.8c-0.1,0-0.1,0.1-0.2,0.2
							c0.4,0.7,0.7,1.5,1,2.2c0.3,0.7,0.6,1.3,0.9,2c0.1,0.2,0.1,0.3-0.1,0.4c-0.6,0.7-1.1,1.4-1.7,2.1c-0.1,0.1-0.2,0.2-0.4,0.1
							c-1.4-0.4-2.9-0.7-4.3-1c-0.1,0-0.1,0-0.2,0l-2.9,6.4c1,0.7,1.9,1.3,2.9,2C329.4,442.9,329.7,443.1,330.1,443.3z M359.3,434
							c8.1,3.6,11.7,13.1,8.1,21.2c-3.6,8.1-13.1,11.7-21.2,8.1c-8.1-3.6-11.7-13.1-8.1-21.2C341.7,434,351.2,430.4,359.3,434z"/>
					</g>
				</g>
			</g>
		</g>
	</g>
	<ellipse class="st0" cx="234.4" cy="528.5" rx="33.5" ry="11.5"/>
	<ellipse class="st0" cx="583" cy="553" rx="48.6" ry="11.5"/>
	<g>
		<defs>
			<path id="SVGID_1_" d="M223.4,508.8c0,0.6,0.1,6.5-8.2,8.5c-8.4,2-10,5.7-9.2,8.4c2.3,7.8,14.7,3.3,19,4.1
				c4.3,0.8,10.4-0.8,10.8-5.5c0.5-4.7-1.5-15.2-1.5-15.2L223.4,508.8z"/>
		</defs>
		<use xlink:href="#SVGID_1_"  style="overflow:visible;fill:#FFAB00;"/>
		<clipPath id="SVGID_2_">
			<use xlink:href="#SVGID_1_"  style="overflow:visible;"/>
		</clipPath>
		<path class="st3" d="M220.9,512.6c0,0,10.2,1.2,9.8,9.8c-0.4,8.6-3.3,8.9-3.3,8.9c0.4-0.2,10-0.1,10-0.1s-0.3-16.8-0.2-17.3
			c0.1-0.5-1.8-7.7-2.1-7.7s-14.3,1.9-14.3,1.9V512.6z"/>
	</g>
	<g>
		<defs>
			<path id="SVGID_3_" d="M244.4,511.5c0,0-0.7,1.7-1.7,10.9c-1,9.1,2.5,12.2,10.8,12c8.3-0.3,7.8-6.7,7.7-9.6s-2.9-4-2.7-11.4
				L244.4,511.5z"/>
		</defs>
		<use xlink:href="#SVGID_3_"  style="overflow:visible;fill:#FFAB00;"/>
		<clipPath id="SVGID_4_">
			<use xlink:href="#SVGID_3_"  style="overflow:visible;"/>
		</clipPath>
		<path class="st4" d="M242.5,520.4c0,0,0.8-3.2,5.3-3.2c4.5,0.1,5.2-0.3,7.2,2.4s2.6,2.9,2.4,6.3c-0.2,3.5,0.2,7.6-2,8.4
			c-2.2,0.8,5.2,0,5.2,0l2.5-6.7l0.3-12.7l-3.8-5.1c0,0-20.3,0.3-19.6,0.3S242.5,520.4,242.5,520.4z"/>
	</g>
	<g>
		<defs>
			<path id="SVGID_5_" d="M220.6,389.7l-1.2,6.9v111.9c0,0,8.3,7.6,21.3,2.1l1.4-118.5L220.6,389.7z"/>
		</defs>
		<use xlink:href="#SVGID_5_"  style="overflow:visible;fill:#1E2889;"/>
		<clipPath id="SVGID_6_">
			<use xlink:href="#SVGID_5_"  style="overflow:visible;"/>
		</clipPath>
		<path class="st5" d="M216.9,451.1c0,0,14.3-3.6,16.3,8.4c2,12,1,55.4,1,55.4l9.1-2.9l1.6-58.5l3.8-63.1l-34.5-2.3l-1.1,42.3
			L216.9,451.1z"/>
	</g>
	<g>
		<defs>
			<path id="SVGID_7_" d="M265.8,392.1l-1.2,118.2c0,0-6.2,10.2-24,0.2l1.4-118.5H265.8z"/>
		</defs>
		<use xlink:href="#SVGID_7_"  style="overflow:visible;fill:#1E2889;"/>
		<clipPath id="SVGID_8_">
			<use xlink:href="#SVGID_7_"  style="overflow:visible;"/>
		</clipPath>
		<path class="st6" d="M239.8,450c0,0,17.7-4.7,18.4,10.4c0.7,15.1-0.3,55.6-0.3,55.6l8-2.4l3.8-7.3l-1.6-59.1l2.4-34.5l-0.8-23.1
			l-32.3,1.6L239.8,450z"/>
	</g>
	<g>
		<path class="st7" d="M663.8,413.6h-231c-4.8,0-8.7-3.9-8.7-8.7V200.2c0-4.8,3.9-8.7,8.7-8.7h231c4.8,0,8.7,3.9,8.7,8.7v204.7
			C672.5,409.7,668.6,413.6,663.8,413.6z"/>
		<linearGradient id="SVGID_9_" gradientUnits="userSpaceOnUse" x1="435.2464" y1="302.5118" x2="661.3818" y2="302.5118">
			<stop  offset="0" style="stop-color:#B0D8FF"/>
			<stop  offset="1.537955e-02" style="stop-color:#B3D9FF"/>
			<stop  offset="0.145" style="stop-color:#C4E1FF"/>
			<stop  offset="0.3014" style="stop-color:#D1E7FF"/>
			<stop  offset="0.5117" style="stop-color:#D8EAFF"/>
			<stop  offset="1" style="stop-color:#DAEBFF"/>
		</linearGradient>
		<path class="st8" d="M653.4,403.6H443.2c-4.4,0-7.9-3.6-7.9-7.9V209.3c0-4.4,3.6-7.9,7.9-7.9h210.3c4.4,0,7.9,3.6,7.9,7.9v186.3
			C661.4,400.1,657.8,403.6,653.4,403.6z"/>
		<g>
			<g>
				<g>
					<g>
						<line class="st9" x1="478" y1="211.9" x2="478" y2="213.8"/>
						<line class="st10" x1="478" y1="218.5" x2="478" y2="387.8"/>
						<line class="st9" x1="478" y1="390.2" x2="478" y2="392.1"/>
					</g>
				</g>
			</g>
			<g>
				<g>
					<g>
						<line class="st9" x1="524.5" y1="211.9" x2="524.5" y2="213.8"/>
						<line class="st10" x1="524.5" y1="218.5" x2="524.5" y2="387.8"/>
						<line class="st9" x1="524.5" y1="390.2" x2="524.5" y2="392.1"/>
					</g>
				</g>
			</g>
			<g>
				<g>
					<g>
						<line class="st9" x1="571" y1="211.9" x2="571" y2="213.8"/>
						<line class="st10" x1="571" y1="218.5" x2="571" y2="387.8"/>
						<line class="st9" x1="571" y1="390.2" x2="571" y2="392.1"/>
					</g>
				</g>
			</g>
			<g>
				<g>
					<g>
						<line class="st9" x1="617.5" y1="211.9" x2="617.5" y2="213.8"/>
						<line class="st10" x1="617.5" y1="218.5" x2="617.5" y2="387.8"/>
						<line class="st9" x1="617.5" y1="390.2" x2="617.5" y2="392.1"/>
					</g>
				</g>
			</g>
			<g>
				<g>
					<g>
						<line class="st9" x1="651.9" y1="232.2" x2="650" y2="232.2"/>
						<line class="st11" x1="645.4" y1="232.2" x2="447.8" y2="232.2"/>
						<line class="st9" x1="445.6" y1="232.2" x2="443.6" y2="232.2"/>
					</g>
				</g>
			</g>
			<g>
				<g>
					<g>
						<line class="st9" x1="651.9" y1="278.7" x2="650" y2="278.7"/>
						<line class="st11" x1="645.4" y1="278.7" x2="447.8" y2="278.7"/>
						<line class="st9" x1="445.6" y1="278.7" x2="443.6" y2="278.7"/>
					</g>
				</g>
			</g>
			<g>
				<g>
					<g>
						<line class="st9" x1="651.9" y1="325.2" x2="650" y2="325.2"/>
						<line class="st11" x1="645.4" y1="325.2" x2="447.8" y2="325.2"/>
						<line class="st9" x1="445.6" y1="325.2" x2="443.6" y2="325.2"/>
					</g>
				</g>
			</g>
			<g>
				<g>
					<g>
						<line class="st9" x1="651.9" y1="371.8" x2="650" y2="371.8"/>
						<line class="st11" x1="645.4" y1="371.8" x2="447.8" y2="371.8"/>
						<line class="st9" x1="445.6" y1="371.8" x2="443.6" y2="371.8"/>
					</g>
				</g>
			</g>
		</g>
	</g>
	<g>
		<polygon class="st12" points="484.9,378.7 479.6,376.5 479.6,534.6 519.8,534.6 622.8,534.6 622.8,455.1 		"/>
		<polygon class="st13" points="521.4,451.5 519.8,456.1 519.8,534.6 479.6,534.6 479.6,376.5 		"/>
		<polygon class="st14" points="622.8,455.1 519.8,456.1 479.6,376.5 582.6,375.6 		"/>
		<polygon class="st15" points="521.4,402.2 499.1,402.5 489.1,382.6 511.4,382.4 		"/>
		<polygon class="st13" points="564.6,445.1 548.9,445.2 518.8,385.7 534.5,385.6 		"/>
		<polygon class="st16" points="557.8,441 551.5,441 525.6,389.8 531.9,389.8 		"/>
		<polygon class="st13" points="587.2,444.9 571.6,445 541.5,385.5 557.2,385.4 		"/>
		<polygon class="st13" points="609.9,444.7 594.2,444.8 564.2,385.3 579.9,385.2 		"/>
		<polygon class="st16" points="580.4,440.8 574.2,440.8 548.3,389.6 554.6,389.5 		"/>
		<polygon class="st16" points="603.1,440.6 596.9,440.6 571,389.4 577.3,389.3 		"/>
		<g>
			<g>
				<g>
					<polygon class="st7" points="515.9,424.9 510.9,424.9 504.5,412.2 509.5,412.2 					"/>
				</g>
				<g>
					<polygon class="st7" points="524.5,424.8 519.6,424.8 513.2,412.2 518.1,412.1 					"/>
				</g>
				<polygon class="st13" points="533.1,424.7 528.2,424.7 521.8,412.1 526.7,412 				"/>
			</g>
		</g>
		<g>
			<g>
				<g>
					<polygon class="st7" points="526.2,445.4 521.3,445.5 514.9,432.8 519.9,432.8 					"/>
				</g>
				<polygon class="st13" points="534.9,445.3 530,445.4 523.6,432.7 528.5,432.7 				"/>
				<polygon class="st13" points="543.5,445.3 538.6,445.3 532.2,432.7 537.1,432.6 				"/>
			</g>
		</g>
		<circle class="st17" cx="532.9" cy="398.3" r="5.4"/>
		<circle class="st17" cx="563.1" cy="413.1" r="5.4"/>
		
			<ellipse transform="matrix(0.1602 -0.9871 0.9871 0.1602 81.7983 931.7927)" class="st17" cx="588.5" cy="417.8" rx="5.4" ry="5.4"/>
		<path class="st18" d="M510.9,393.3L510.9,393.3L510.9,393.3c0.3-0.7,0.3-1.6-0.2-2.6c-1.1-2.2-4-3.9-6.4-3.9
			c-1.3,0-2.3,0.5-2.7,1.4l-0.7,1.2c-0.2,0.2-0.3,0.4-0.4,0.6l0,0l0,0c-0.2,0.7-0.2,1.5,0.3,2.4c1.1,2.2,4,3.9,6.4,3.9
			c1.3,0,2.2-0.5,2.6-1.3l0.8-1.4C510.8,393.6,510.9,393.5,510.9,393.3z"/>
		
			<ellipse transform="matrix(0.5149 -0.8572 0.8572 0.5149 -89.4318 623.5366)" class="st19" cx="506.3" cy="390.8" rx="3.3" ry="5.3"/>
	</g>
	<g>
		<defs>
			<path id="SVGID_10_" d="M223.6,341.3c-0.4,0.3-2.8,3.6-2.8,3.6s1.6,18.2,0.5,32c-1.1,13.8-1.5,14.5-1.5,14.5s10.5,4,22.8,4
				c12.1,0,23.3-4,23.3-4s-3.7-10.1-2.3-29.8l-1.1-11.9l-2-12.7L223.6,341.3z"/>
		</defs>
		<use xlink:href="#SVGID_10_"  style="overflow:visible;fill:#B0D8FF;"/>
		<clipPath id="SVGID_11_">
			<use xlink:href="#SVGID_10_"  style="overflow:visible;"/>
		</clipPath>
		<path class="st20" d="M220.9,361.7c0,0,15.8,7.4,40.2,2.4"/>
		<path class="st21" d="M267.6,362l4.6,32l-27,3.1c0,0-15.4-2.2-23.7-3.3c-8.3-1.1-6.7,4.8-8.2-3.1c-1.5-7.9-1.9-17.3-1.9-17.3
			l8.7-8.9C220.2,364.5,249.4,374.8,267.6,362z"/>
	</g>
	<path class="st16" d="M559.2,541.7c0,0-1,5-3.7,5.1s-9.1-4.1-10.7,1.8c-1.6,5.9,1.5,8.4,3.4,9.1c1.9,0.7,12.2,6.4,19.1,4.2
		s3.5-7.8,3.8-12.6c0.2-4.8-0.4-7.2-0.4-7.2L559.2,541.7z"/>
	<path class="st16" d="M611.7,536.5c0,0,0.7,5-1.7,6c-2.4,1-10-0.8-9.4,5.3c0.5,6.1,4.3,7.4,6.3,7.4c2,0,13.6,1.9,19.4-2.5
		s0.7-8.6-0.7-13.1c-1.4-4.6-2.8-6.6-2.8-6.6L611.7,536.5z"/>
	<g>
		
			<rect x="165" y="209.8" transform="matrix(-1 -1.224647e-16 1.224647e-16 -1 446.2328 558.2745)" class="st22" width="116.2" height="138.7"/>
		
			<rect x="159.7" y="209.8" transform="matrix(-1 -1.224647e-16 1.224647e-16 -1 438.4313 558.2745)" class="st23" width="119" height="138.7"/>
		
			<rect x="165" y="348.5" transform="matrix(-1 -1.224647e-16 1.224647e-16 -1 446.2328 706.8154)" class="st22" width="116.2" height="9.9"/>
		
			<rect x="150.8" y="348.5" transform="matrix(-1 -1.224647e-16 1.224647e-16 -1 420.7157 706.8154)" class="st23" width="119" height="9.9"/>
		
			<rect x="157.3" y="227.1" transform="matrix(-1.836970e-16 1 -1 -1.836970e-16 498.353 59.9216)" class="st24" width="123.8" height="104.2"/>
		<polygon class="st15" points="258.5,341 214.8,217.3 194.2,217.3 237.9,341 		"/>
		<path class="st25" d="M267.8,299c0.3,0,0.5-0.2,0.5-0.5v-76.4c0-0.3-0.2-0.5-0.5-0.5c-0.3,0-0.5,0.2-0.5,0.5v76.4
			C267.3,298.8,267.6,299,267.8,299z"/>
		<polygon class="st15" points="233.5,341 189.8,217.3 181.7,217.3 225.4,341 		"/>
		
			<rect x="105.7" y="278.7" transform="matrix(-1.836970e-16 1 -1 -1.836970e-16 446.7455 111.5291)" class="st22" width="123.8" height="0.9"/>
		<polygon class="st22" points="157.9,226.8 274.1,226.8 274.8,220.1 158.6,220.1 		"/>
		<polygon class="st22" points="157.9,231.6 274.1,231.6 274.8,225 158.6,225 		"/>
		<polygon class="st22" points="157.9,237.4 274.1,237.4 274.8,230.8 158.6,230.8 		"/>
		<polygon class="st22" points="157.9,243.9 274.1,243.9 274.8,237.3 158.6,237.3 		"/>
		<polygon class="st22" points="157.9,251.7 274.1,251.7 274.8,245.1 158.6,245.1 		"/>
		<polygon class="st22" points="157.9,260.4 274.1,260.4 274.8,253.8 158.6,253.8 		"/>
	</g>
	<g>
		<g>
			<g>
				<polygon class="st26" points="120.8,479.3 112.7,479.3 127.5,504.8 68.4,504.8 64.4,511.7 139.7,511.7 				"/>
			</g>
			<path class="st16" d="M29.9,201.8c-0.3,0-0.5-0.1-0.7-0.4c-0.3-0.4-0.2-0.9,0.2-1.2l59.9-43.6c0.4-0.3,0.9-0.2,1.2,0.2
				c0.3,0.4,0.2,0.9-0.2,1.2l-59.9,43.6C30.3,201.7,30.1,201.8,29.9,201.8z"/>
			<path class="st16" d="M329.6,201.8c-0.1,0-0.1,0-0.2,0l-215.3-43.6c-0.5-0.1-0.8-0.6-0.7-1c0.1-0.5,0.6-0.8,1-0.7l215.3,43.6
				c0.5,0.1,0.8,0.6,0.7,1C330.3,201.5,330,201.8,329.6,201.8z"/>
			<path class="st16" d="M329.6,201.8C329.5,201.8,329.5,201.8,329.6,201.8l-215.4-21.5c-0.5,0-0.8-0.5-0.8-1c0-0.5,0.5-0.8,1-0.8
				l215.3,21.5c0.5,0,0.8,0.5,0.8,1C330.4,201.5,330,201.8,329.6,201.8z"/>
			<g>
				<g>
					<path class="st16" d="M41.9,216c-0.3,0-0.5-0.1-0.7-0.3l-12-14.1c-0.2-0.3-0.3-0.6-0.1-0.9c0.1-0.3,0.5-0.5,0.8-0.5h24
						c0.3,0,0.6,0.2,0.8,0.5c0.1,0.3,0.1,0.7-0.1,0.9l-12,14.1C42.4,215.8,42.2,216,41.9,216z M31.8,201.8l10.1,11.9l10.1-11.9H31.8
						z"/>
					<path class="st16" d="M66,216C66,216,66,216,66,216c-0.3,0-0.5-0.1-0.7-0.3l-12-14.1c-0.2-0.3-0.3-0.6-0.1-0.9
						c0.1-0.3,0.5-0.5,0.8-0.5h24c0.3,0,0.6,0.2,0.8,0.5c0.1,0.3,0.1,0.7-0.1,0.9l-12,14.1C66.5,215.8,66.2,216,66,216z M55.8,201.8
						L66,213.7l10.1-11.9H55.8z"/>
					<path class="st16" d="M90,216L90,216c-0.3,0-0.5-0.1-0.7-0.3l-12-14.1c-0.2-0.3-0.3-0.6-0.1-0.9c0.1-0.3,0.5-0.5,0.8-0.5h24
						c0.3,0,0.6,0.2,0.8,0.5c0.1,0.3,0.1,0.7-0.1,0.9l-12,14.1C90.5,215.8,90.3,216,90,216z M79.9,201.8L90,213.7l10.1-11.9H79.9z"
						/>
					<path class="st16" d="M114,216c-0.3,0-0.5-0.1-0.7-0.3l-12-14.1c-0.2-0.3-0.3-0.6-0.1-0.9c0.1-0.3,0.5-0.5,0.8-0.5h24
						c0.3,0,0.6,0.2,0.8,0.5c0.1,0.3,0.1,0.7-0.1,0.9l-12,14.1C114.5,215.8,114.3,216,114,216z M103.9,201.8l10.1,11.9l10.1-11.9
						H103.9z"/>
					<path class="st16" d="M138.1,216L138.1,216c-0.3,0-0.5-0.1-0.7-0.3l-12-14.1c-0.2-0.3-0.3-0.6-0.1-0.9c0.1-0.3,0.5-0.5,0.8-0.5
						h24c0.3,0,0.6,0.2,0.8,0.5c0.1,0.3,0.1,0.7-0.1,0.9l-12,14.1C138.6,215.8,138.3,216,138.1,216z M127.9,201.8l10.1,11.9
						l10.1-11.9H127.9z"/>
					<path class="st16" d="M162.1,216c-0.3,0-0.5-0.1-0.7-0.3l-12-14.1c-0.2-0.3-0.3-0.6-0.1-0.9c0.1-0.3,0.5-0.5,0.8-0.5h24
						c0.3,0,0.6,0.2,0.8,0.5c0.1,0.3,0.1,0.7-0.1,0.9l-12,14.1C162.6,215.8,162.4,216,162.1,216z M152,201.8l10.1,11.9l10.1-11.9
						H152z"/>
					<path class="st16" d="M186.1,216c-0.3,0-0.5-0.1-0.7-0.3l-12-14.1c-0.2-0.3-0.3-0.6-0.1-0.9c0.1-0.3,0.5-0.5,0.8-0.5h24
						c0.3,0,0.6,0.2,0.8,0.5c0.1,0.3,0.1,0.7-0.1,0.9l-12,14.1C186.6,215.8,186.4,216,186.1,216z M176,201.8l10.1,11.9l10.1-11.9
						H176z"/>
					<path class="st16" d="M210.2,216L210.2,216c-0.3,0-0.5-0.1-0.7-0.3l-12-14.1c-0.2-0.3-0.3-0.6-0.1-0.9c0.1-0.3,0.5-0.5,0.8-0.5
						h24c0.3,0,0.6,0.2,0.8,0.5c0.1,0.3,0.1,0.7-0.1,0.9l-12,14.1C210.7,215.8,210.4,216,210.2,216z M200,201.8l10.1,11.9l10.1-11.9
						H200z"/>
					<path class="st16" d="M234.2,216L234.2,216c-0.3,0-0.5-0.1-0.7-0.3l-12-14.1c-0.2-0.3-0.3-0.6-0.1-0.9c0.1-0.3,0.5-0.5,0.8-0.5
						h24c0.3,0,0.6,0.2,0.8,0.5c0.1,0.3,0.1,0.7-0.1,0.9l-12,14.1C234.7,215.8,234.5,216,234.2,216z M224.1,201.8l10.1,11.9
						l10.1-11.9H224.1z"/>
					<path class="st16" d="M41.9,216c-0.5,0-0.9-0.4-0.9-0.9v-14.1c0-0.5,0.4-0.9,0.9-0.9c0.5,0,0.9,0.4,0.9,0.9v14.1
						C42.8,215.6,42.4,216,41.9,216z"/>
					<path class="st16" d="M66,216c-0.5,0-0.9-0.4-0.9-0.9v-14.1c0-0.5,0.4-0.9,0.9-0.9c0.5,0,0.9,0.4,0.9,0.9v14.1
						C66.8,215.6,66.5,216,66,216z"/>
					<path class="st16" d="M90,216c-0.5,0-0.9-0.4-0.9-0.9v-14.1c0-0.5,0.4-0.9,0.9-0.9c0.5,0,0.9,0.4,0.9,0.9v14.1
						C90.9,215.6,90.5,216,90,216z"/>
					<path class="st16" d="M114,216c-0.5,0-0.9-0.4-0.9-0.9v-14.1c0-0.5,0.4-0.9,0.9-0.9c0.5,0,0.9,0.4,0.9,0.9v14.1
						C114.9,215.6,114.5,216,114,216z"/>
					<path class="st16" d="M138.1,216c-0.5,0-0.9-0.4-0.9-0.9v-14.1c0-0.5,0.4-0.9,0.9-0.9s0.9,0.4,0.9,0.9v14.1
						C138.9,215.6,138.6,216,138.1,216z"/>
					<path class="st16" d="M162.1,216c-0.5,0-0.9-0.4-0.9-0.9v-14.1c0-0.5,0.4-0.9,0.9-0.9c0.5,0,0.9,0.4,0.9,0.9v14.1
						C163,215.6,162.6,216,162.1,216z"/>
					<path class="st16" d="M186.1,216c-0.5,0-0.9-0.4-0.9-0.9v-14.1c0-0.5,0.4-0.9,0.9-0.9s0.9,0.4,0.9,0.9v14.1
						C187,215.6,186.6,216,186.1,216z"/>
					<path class="st16" d="M210.2,216c-0.5,0-0.9-0.4-0.9-0.9v-14.1c0-0.5,0.4-0.9,0.9-0.9c0.5,0,0.9,0.4,0.9,0.9v14.1
						C211.1,215.6,210.7,216,210.2,216z"/>
					<path class="st16" d="M234.2,216c-0.5,0-0.9-0.4-0.9-0.9v-14.1c0-0.5,0.4-0.9,0.9-0.9s0.9,0.4,0.9,0.9v14.1
						C235.1,215.6,234.7,216,234.2,216z"/>
					<path class="st16" d="M257.9,216L257.9,216c-0.3,0-0.5-0.1-0.7-0.3l-12-14.1c-0.2-0.3-0.3-0.6-0.1-0.9c0.1-0.3,0.5-0.5,0.8-0.5
						h24c0.3,0,0.6,0.2,0.8,0.5c0.1,0.3,0.1,0.7-0.1,0.9l-12,14.1C258.4,215.8,258.1,216,257.9,216z M247.7,201.8l10.1,11.9
						l10.1-11.9H247.7z"/>
					<path class="st16" d="M257.9,216c-0.5,0-0.9-0.4-0.9-0.9v-14.1c0-0.5,0.4-0.9,0.9-0.9c0.5,0,0.9,0.4,0.9,0.9v14.1
						C258.7,215.6,258.3,216,257.9,216z"/>
					<path class="st16" d="M281.5,216c-0.3,0-0.5-0.1-0.7-0.3l-12-14.1c-0.2-0.3-0.3-0.6-0.1-0.9c0.1-0.3,0.5-0.5,0.8-0.5h24
						c0.3,0,0.6,0.2,0.8,0.5c0.1,0.3,0.1,0.7-0.1,0.9l-12,14.1C282,215.8,281.8,216,281.5,216z M271.4,201.8l10.1,11.9l10.1-11.9
						H271.4z"/>
					<path class="st16" d="M281.5,216c-0.5,0-0.9-0.4-0.9-0.9v-14.1c0-0.5,0.4-0.9,0.9-0.9c0.5,0,0.9,0.4,0.9,0.9v14.1
						C282.4,215.6,282,216,281.5,216z"/>
					<path class="st16" d="M305.5,216c-0.3,0-0.5-0.1-0.7-0.3l-12-14.1c-0.2-0.3-0.3-0.6-0.1-0.9c0.1-0.3,0.5-0.5,0.8-0.5h24
						c0.3,0,0.6,0.2,0.8,0.5c0.1,0.3,0.1,0.7-0.1,0.9l-12,14.1C306,215.8,305.8,216,305.5,216z M295.4,201.8l10.1,11.9l10.1-11.9
						H295.4z"/>
					<path class="st16" d="M305.5,216c-0.5,0-0.9-0.4-0.9-0.9v-14.1c0-0.5,0.4-0.9,0.9-0.9c0.5,0,0.9,0.4,0.9,0.9v14.1
						C306.4,215.6,306,216,305.5,216z"/>
					<path class="st16" d="M329.6,216L329.6,216c-0.3,0-0.5-0.1-0.7-0.3l-12-14.1c-0.2-0.3-0.3-0.6-0.1-0.9c0.1-0.3,0.5-0.5,0.8-0.5
						h24c0.3,0,0.6,0.2,0.8,0.5c0.1,0.3,0.1,0.7-0.1,0.9l-12,14.1C330.1,215.8,329.8,216,329.6,216z M319.4,201.8l10.1,11.9
						l10.1-11.9H319.4z"/>
					<path class="st16" d="M329.6,216c-0.5,0-0.9-0.4-0.9-0.9v-14.1c0-0.5,0.4-0.9,0.9-0.9s0.9,0.4,0.9,0.9v14.1
						C330.4,215.6,330.1,216,329.6,216z"/>
					<path class="st16" d="M353.6,216c-0.3,0-0.5-0.1-0.7-0.3l-12-14.1c-0.2-0.3-0.3-0.6-0.1-0.9c0.1-0.3,0.5-0.5,0.8-0.5h24
						c0.3,0,0.6,0.2,0.8,0.5c0.1,0.3,0.1,0.7-0.1,0.9l-12,14.1C354.1,215.8,353.9,216,353.6,216z M343.5,201.8l10.1,11.9l10.1-11.9
						H343.5z"/>
					<path class="st16" d="M353.6,216c-0.5,0-0.9-0.4-0.9-0.9v-14.1c0-0.5,0.4-0.9,0.9-0.9c0.5,0,0.9,0.4,0.9,0.9v14.1
						C354.5,215.6,354.1,216,353.6,216z"/>
					<path class="st16" d="M365.6,216.1H29.9c-0.5,0-0.9-0.4-0.9-0.9v-14.3c0-0.5,0.4-0.9,0.9-0.9h335.7c0.5,0,0.9,0.4,0.9,0.9v14.3
						C366.5,215.7,366.1,216.1,365.6,216.1z M30.8,214.4h334v-12.6h-334V214.4z"/>
				</g>
			</g>
			<g>
				<g>
					<path class="st16" d="M114.2,165.9c-0.2,0-0.3,0-0.4-0.1l-24.1-14.4c-0.3-0.2-0.4-0.4-0.4-0.7s0.2-0.6,0.4-0.7l24.1-14.4
						c0.3-0.2,0.6-0.2,0.9,0c0.3,0.2,0.4,0.4,0.4,0.8v28.7c0,0.3-0.2,0.6-0.4,0.8C114.5,165.9,114.4,165.9,114.2,165.9z M91.8,150.7
						l21.5,12.8v-25.7L91.8,150.7z"/>
					<path class="st16" d="M114.2,194.7c-0.2,0-0.3,0-0.4-0.1l-24.1-14.4c-0.3-0.2-0.4-0.4-0.4-0.7c0-0.3,0.2-0.6,0.4-0.7l24.1-14.4
						c0.3-0.2,0.6-0.2,0.9,0c0.3,0.2,0.4,0.4,0.4,0.8v28.7c0,0.3-0.2,0.6-0.4,0.8C114.5,194.6,114.4,194.7,114.2,194.7z M91.8,179.4
						l21.5,12.8v-25.7L91.8,179.4z"/>
					<path class="st16" d="M114.2,252.1c-0.2,0-0.3,0-0.4-0.1l-24.1-14.4c-0.3-0.2-0.4-0.4-0.4-0.7s0.2-0.6,0.4-0.7l24.1-14.4
						c0.3-0.2,0.6-0.2,0.9,0c0.3,0.2,0.4,0.4,0.4,0.8v28.7c0,0.3-0.2,0.6-0.4,0.8C114.5,252.1,114.4,252.1,114.2,252.1z M91.8,236.9
						l21.5,12.8V224L91.8,236.9z"/>
					<path class="st16" d="M114.2,280.8c-0.2,0-0.3,0-0.4-0.1l-24.1-14.4c-0.3-0.2-0.4-0.4-0.4-0.7c0-0.3,0.2-0.6,0.4-0.7l24.1-14.4
						c0.3-0.2,0.6-0.2,0.9,0c0.3,0.2,0.4,0.4,0.4,0.8V280c0,0.3-0.2,0.6-0.4,0.8C114.5,280.8,114.4,280.8,114.2,280.8z M91.8,265.6
						l21.5,12.8v-25.7L91.8,265.6z"/>
					<path class="st16" d="M114.2,309.6c-0.2,0-0.3,0-0.4-0.1l-24.1-14.4c-0.3-0.2-0.4-0.4-0.4-0.7c0-0.3,0.2-0.6,0.4-0.7l24.1-14.4
						c0.3-0.2,0.6-0.2,0.9,0c0.3,0.2,0.4,0.4,0.4,0.8v28.7c0,0.3-0.2,0.6-0.4,0.8C114.5,309.5,114.4,309.6,114.2,309.6z M91.8,294.3
						l21.5,12.8v-25.7L91.8,294.3z"/>
					<path class="st16" d="M114.2,338.3c-0.2,0-0.3,0-0.4-0.1l-24.1-14.4c-0.3-0.2-0.4-0.4-0.4-0.7c0-0.3,0.2-0.6,0.4-0.7l24.1-14.4
						c0.3-0.2,0.6-0.2,0.9,0c0.3,0.2,0.4,0.4,0.4,0.8v28.7c0,0.3-0.2,0.6-0.4,0.8C114.5,338.2,114.4,338.3,114.2,338.3z M91.8,323
						l21.5,12.8v-25.7L91.8,323z"/>
					<path class="st16" d="M114.2,367c-0.2,0-0.3,0-0.4-0.1l-24.1-14.4c-0.3-0.2-0.4-0.4-0.4-0.7c0-0.3,0.2-0.6,0.4-0.7l24.1-14.4
						c0.3-0.2,0.6-0.2,0.9,0c0.3,0.2,0.4,0.4,0.4,0.8v28.7c0,0.3-0.2,0.6-0.4,0.8C114.5,367,114.4,367,114.2,367z M91.8,351.8
						l21.5,12.8v-25.7L91.8,351.8z"/>
					<path class="st16" d="M114.2,395.7c-0.2,0-0.3,0-0.4-0.1l-24.1-14.4c-0.3-0.2-0.4-0.4-0.4-0.7c0-0.3,0.2-0.6,0.4-0.7l24.1-14.4
						c0.3-0.2,0.6-0.2,0.9,0c0.3,0.2,0.4,0.4,0.4,0.8v28.7c0,0.3-0.2,0.6-0.4,0.8C114.5,395.7,114.4,395.7,114.2,395.7z M91.8,380.5
						l21.5,12.8v-25.7L91.8,380.5z"/>
					<path class="st16" d="M114.2,151.6H90.1c-0.5,0-0.9-0.4-0.9-0.9c0-0.5,0.4-0.9,0.9-0.9h24.1c0.5,0,0.9,0.4,0.9,0.9
						C115.1,151.2,114.7,151.6,114.2,151.6z"/>
					<path class="st16" d="M114.2,180.3H90.1c-0.5,0-0.9-0.4-0.9-0.9c0-0.5,0.4-0.9,0.9-0.9h24.1c0.5,0,0.9,0.4,0.9,0.9
						C115.1,179.9,114.7,180.3,114.2,180.3z"/>
					<path class="st16" d="M114.2,237.7H90.1c-0.5,0-0.9-0.4-0.9-0.9c0-0.5,0.4-0.9,0.9-0.9h24.1c0.5,0,0.9,0.4,0.9,0.9
						C115.1,237.4,114.7,237.7,114.2,237.7z"/>
					<path class="st16" d="M114.2,266.5H90.1c-0.5,0-0.9-0.4-0.9-0.9s0.4-0.9,0.9-0.9h24.1c0.5,0,0.9,0.4,0.9,0.9
						S114.7,266.5,114.2,266.5z"/>
					<path class="st16" d="M114.2,295.2H90.1c-0.5,0-0.9-0.4-0.9-0.9s0.4-0.9,0.9-0.9h24.1c0.5,0,0.9,0.4,0.9,0.9
						S114.7,295.2,114.2,295.2z"/>
					<path class="st16" d="M114.2,323.9H90.1c-0.5,0-0.9-0.4-0.9-0.9s0.4-0.9,0.9-0.9h24.1c0.5,0,0.9,0.4,0.9,0.9
						S114.7,323.9,114.2,323.9z"/>
					<path class="st16" d="M114.2,352.6H90.1c-0.5,0-0.9-0.4-0.9-0.9s0.4-0.9,0.9-0.9h24.1c0.5,0,0.9,0.4,0.9,0.9
						S114.7,352.6,114.2,352.6z"/>
					<path class="st16" d="M114.2,381.4H90.1c-0.5,0-0.9-0.4-0.9-0.9c0-0.5,0.4-0.9,0.9-0.9h24.1c0.5,0,0.9,0.4,0.9,0.9
						C115.1,381,114.7,381.4,114.2,381.4z"/>
					<path class="st16" d="M114.2,424.2c-0.2,0-0.3,0-0.4-0.1l-24.1-14.4c-0.3-0.2-0.4-0.4-0.4-0.7c0-0.3,0.2-0.6,0.4-0.7l24.1-14.4
						c0.3-0.2,0.6-0.2,0.9,0c0.3,0.2,0.4,0.4,0.4,0.8v28.7c0,0.3-0.2,0.6-0.4,0.8C114.5,424.1,114.4,424.2,114.2,424.2z M91.8,408.9
						l21.5,12.8v-25.7L91.8,408.9z"/>
					<path class="st16" d="M114.2,409.8H90.1c-0.5,0-0.9-0.4-0.9-0.9c0-0.5,0.4-0.9,0.9-0.9h24.1c0.5,0,0.9,0.4,0.9,0.9
						C115.1,409.4,114.7,409.8,114.2,409.8z"/>
					<path class="st16" d="M114.2,452.6c-0.2,0-0.3,0-0.4-0.1l-24.1-14.4c-0.3-0.2-0.4-0.4-0.4-0.7c0-0.3,0.2-0.6,0.4-0.7l24.1-14.4
						c0.3-0.2,0.6-0.2,0.9,0c0.3,0.2,0.4,0.4,0.4,0.8v28.7c0,0.3-0.2,0.6-0.4,0.8C114.5,452.6,114.4,452.6,114.2,452.6z M91.8,437.4
						l21.5,12.8v-25.7L91.8,437.4z"/>
					<path class="st16" d="M114.2,438.3H90.1c-0.5,0-0.9-0.4-0.9-0.9c0-0.5,0.4-0.9,0.9-0.9h24.1c0.5,0,0.9,0.4,0.9,0.9
						C115.1,437.9,114.7,438.3,114.2,438.3z"/>
					<path class="st16" d="M114.2,481.1c-0.2,0-0.3,0-0.4-0.1l-24.1-14.4c-0.3-0.2-0.4-0.4-0.4-0.7c0-0.3,0.2-0.6,0.4-0.7l24.1-14.4
						c0.3-0.2,0.6-0.2,0.9,0c0.3,0.2,0.4,0.4,0.4,0.8v28.7c0,0.3-0.2,0.6-0.4,0.8C114.5,481.1,114.4,481.1,114.2,481.1z M91.8,465.9
						l21.5,12.8V453L91.8,465.9z"/>
					<path class="st16" d="M114.2,466.7H90.1c-0.5,0-0.9-0.4-0.9-0.9s0.4-0.9,0.9-0.9h24.1c0.5,0,0.9,0.4,0.9,0.9
						S114.7,466.7,114.2,466.7z"/>
					<path class="st16" d="M114.2,481.1H89.8c-0.5,0-0.9-0.4-0.9-0.9V136.3c0-0.5,0.4-0.9,0.9-0.9h24.4c0.5,0,0.9,0.4,0.9,0.9v343.9
						C115.1,480.7,114.7,481.1,114.2,481.1z M90.7,479.4h22.7V137.2H90.7V479.4z"/>
				</g>
			</g>
			<g>
				<path class="st27" d="M139.7,513.5c0.6,0,1.2-0.3,1.5-0.9c0.3-0.5,0.3-1.2,0-1.7l-18.8-32.4c-0.3-0.5-0.9-0.9-1.5-0.9H83.2
					c-0.6,0-1.2,0.3-1.5,0.9l-18.8,32.4c-0.3,0.5-0.3,1.2,0,1.7c0.3,0.5,0.9,0.9,1.5,0.9H139.7z"/>
				<path class="st16" d="M83.2,479.3h37.6l18.8,32.4H64.4L83.2,479.3 M83.2,475.8c-1.2,0-2.4,0.7-3,1.7L61.4,510
					c-0.6,1.1-0.6,2.4,0,3.5c0.6,1.1,1.8,1.7,3,1.7h75.3c1.2,0,2.4-0.7,3-1.7c0.6-1.1,0.6-2.4,0-3.5l-18.8-32.4
					c-0.6-1.1-1.8-1.7-3-1.7H83.2L83.2,475.8z"/>
			</g>
			<g>
				<path class="st27" d="M65.8,243.9c1,0,1.7-0.8,1.7-1.7v-27.1c0-1-0.8-1.7-1.7-1.7H31.1c-1,0-1.7,0.8-1.7,1.7v27.1
					c0,1,0.8,1.7,1.7,1.7H65.8z"/>
				<path class="st16" d="M31.1,215.1h34.8v27.1H31.1V215.1 M31.1,211.6c-1.9,0-3.5,1.5-3.5,3.5v27.1c0,1.9,1.6,3.5,3.5,3.5h34.8
					c1.9,0,3.5-1.5,3.5-3.5v-27.1c0-1.9-1.6-3.5-3.5-3.5H31.1L31.1,211.6z"/>
			</g>
			<path class="st16" d="M80.9,190.2h41.8l19.8,37.7v37.7H80.9V190.2 M80.9,186.7c-1.9,0-3.5,1.5-3.5,3.5v75.4
				c0,1.9,1.6,3.5,3.5,3.5h61.7c1.9,0,3.5-1.5,3.5-3.5v-37.7c0-0.6-0.1-1.1-0.4-1.6l-19.8-37.7c-0.6-1.1-1.8-1.9-3.1-1.9H80.9
				L80.9,186.7z"/>
			<path class="st28" d="M99.6,195.9h19.6l17.1,32.7v7.4H99.6V195.9 M99.6,193.6c-1.3,0-2.4,1.1-2.4,2.4V236c0,1.3,1.1,2.4,2.4,2.4
				h36.7c1.3,0,2.4-1.1,2.4-2.4v-7.4c0-0.4-0.1-0.8-0.3-1.1l-17.1-32.7c-0.4-0.8-1.2-1.3-2.1-1.3H99.6L99.6,193.6z"/>
			<g>
				<path class="st17" d="M176.5,528.7c1,0,1.7-0.8,1.7-1.7v-22.2c0-1-0.8-1.7-1.7-1.7H37.1c-1,0-1.7,0.8-1.7,1.7V527
					c0,1,0.8,1.7,1.7,1.7H176.5z"/>
				<g>
					<path class="st16" d="M37.1,504.8h139.4V527H37.1V504.8 M37.1,501.3c-1.9,0-3.5,1.5-3.5,3.5V527c0,1.9,1.6,3.5,3.5,3.5h139.4
						c1.9,0,3.5-1.5,3.5-3.5v-22.2c0-1.9-1.6-3.5-3.5-3.5H37.1L37.1,501.3z"/>
				</g>
			</g>
			<g>
				<g>
					<polygon class="st29" points="75.2,501.3 85.6,483.3 106.5,483.3 116.9,501.3 					"/>
				</g>
			</g>
			<g>
				<polygon class="st30" points="325.6,223.8 330.5,323 342.5,323 345.4,223.8 				"/>
				<polygon class="st31" points="325.6,323 312.5,337.5 323,358.3 321,339 329.6,331.1 				"/>
				<polygon class="st31" points="347.7,323 360.8,337.5 350.3,358.3 352.3,339 343.7,331.1 				"/>
				
					<ellipse transform="matrix(0.1602 -0.9871 0.9871 0.1602 -36.2409 603.4875)" class="st32" cx="336.5" cy="323" rx="12" ry="12"/>
				<circle class="st16" cx="336.5" cy="323" r="7.2"/>
				<path class="st32" d="M355.5,210.5c0,11.2-9.1,20.3-20.4,20.3c-11.3,0-20.4-9.1-20.4-20.3c0-11.2,9.1-20.3,20.4-20.3
					C346.4,190.2,355.5,199.3,355.5,210.5z"/>
				<path class="st16" d="M348.5,210.5c0,7.4-6,13.3-13.4,13.3c-7.4,0-13.4-6-13.4-13.3c0-7.4,6-13.3,13.4-13.3
					C342.5,197.1,348.5,203.1,348.5,210.5z"/>
				<path class="st32" d="M343.5,210.5c0,4.6-3.8,8.4-8.4,8.4c-4.7,0-8.4-3.8-8.4-8.4c0-4.6,3.8-8.4,8.4-8.4
					C339.7,202.1,343.5,205.8,343.5,210.5z"/>
			</g>
			<g>
				<rect x="57.5" y="215.1" class="st26" width="8.3" height="27.1"/>
			</g>
			<path class="st17" d="M142.6,267.3c1,0,1.7-0.8,1.7-1.7v-37.7c0-0.3-0.1-0.6-0.2-0.8l-19.8-37.7c-0.3-0.6-0.9-0.9-1.5-0.9H80.9
				c-1,0-1.7,0.8-1.7,1.7v75.4c0,1,0.8,1.7,1.7,1.7H142.6z"/>
			<polygon class="st33" points="122.7,190.2 121.5,190.2 139.7,224.7 139.7,262.4 80.9,262.4 80.9,265.6 142.6,265.6 142.6,227.9 
							"/>
			<path class="st13" d="M136.3,237.2c0.7,0,1.2-0.5,1.2-1.2v-7.4c0-0.2,0-0.4-0.1-0.5l-17.1-32.7c-0.2-0.4-0.6-0.6-1.1-0.6H99.6
				c-0.7,0-1.2,0.5-1.2,1.2V236c0,0.7,0.5,1.2,1.2,1.2H136.3z"/>
			<rect x="83.4" y="193.8" class="st34" width="6.7" height="63.1"/>
			<rect x="32.3" y="216.8" class="st29" width="10.2" height="20.1"/>
			<rect x="42.5" y="508.5" class="st34" width="95.6" height="7.4"/>
		</g>
		<g>
			<g>
				<rect x="165.8" y="504.8" class="st33" width="10.8" height="22.1"/>
			</g>
		</g>
	</g>
	<g>
		<defs>
			<path id="SVGID_12_" d="M233.6,307l-0.9-0.1c0,0-17.7-1.4-24.3,12.1c-6.6,13.4-14.8,39.2-10.3,43.7c4.5,4.5,17.4-0.1,29.3-7
				l-1.1-9.3c0,0-15.1,6.4-16,2.3c-0.9-4.2,9.1-20.8,9.1-20.8l1.3,17l37.6-3.4l2.1,13.8c0,0,10.4,6.2,16.8,3.7
				c6.4-2.5,3.6-13.8,1.3-19.3c-2.3-5.6-10.5-28.9-20.7-31.6c-10.9-2.8-13.9-1.8-13.9-1.8L233.6,307z"/>
		</defs>
		<use xlink:href="#SVGID_12_"  style="overflow:visible;fill:#B0D8FF;"/>
		<clipPath id="SVGID_13_">
			<use xlink:href="#SVGID_12_"  style="overflow:visible;"/>
		</clipPath>
		<path class="st35" d="M200.8,336.4c-0.4,0.8-5.9,20.4-0.8,22.6c5.1,2.2,25.7-4.6,25.7-4.6l-0.1,5.4l-8,3.1l-9.5,3.2l-11.9-0.3
			l-1.1-7.3l-1.6-8L200.8,336.4z"/>
		<path class="st35" d="M218.6,332.6l0.9-4.6c0,0,2.2-7.9-0.2-13.7c0,0,2.2,2.7,2.3,7.2c0.1,4.5-1.5,14.2-1.5,14.2l-1.5,0.3"/>
		<path class="st35" d="M258.2,315c0,0-0.4,6.7,0.2,15.3l1.5,0.3C259.9,330.6,258.4,321.9,258.2,315z"/>
		<path class="st35" d="M261.8,351.2c0,0,18.4,13.7,20.5-2.5l-1.5,10.7l-7,2.7l-12-0.2l-3.1-4.6L261.8,351.2z"/>
	</g>
	<g>
		<defs>
			<polygon id="SVGID_14_" points="227.1,326.1 225.7,371.3 263.9,371.3 268.4,326.1 			"/>
		</defs>
		<use xlink:href="#SVGID_14_"  style="overflow:visible;fill:#006DFE;"/>
		<clipPath id="SVGID_15_">
			<use xlink:href="#SVGID_14_"  style="overflow:visible;"/>
		</clipPath>
		<path class="st36" d="M224.7,352.6c0.3,0,18-7.9,18-7.9s2.1,3.4-5.5,8.7c-7.5,5.4,16.1,8.7,23.1,1.2c7-7.5,8.8-13.2,8.8-13.2
			l-2.3,29.7l-3.5,3.6l-41.8-1.7L224.7,352.6z"/>
	</g>
	<g>
		<defs>
			<path id="SVGID_16_" d="M225.8,349c0,0,1.6-0.5,6.4-4c4.8-3.5,7.9-5.1,10.2-0.9c2.3,4.2-4.5,8.2-9.9,9.3
				c-5.4,1.1-6.7,0.9-6.7,0.9V349z"/>
		</defs>
		<use xlink:href="#SVGID_16_"  style="overflow:visible;fill:#FFACA6;"/>
		<clipPath id="SVGID_17_">
			<use xlink:href="#SVGID_16_"  style="overflow:visible;"/>
		</clipPath>
		<path class="st37" d="M226.5,347.9c0,0-0.8,4.3,2.9,3.8c3.7-0.5,10.9-1,13.4-9l0.9,5.2l-2.1,5l-7.8,1.4l-6.4,0.7l-2.1,0.1
			l-0.9-4.8l1-2.4H226.5z"/>
	</g>
	<g>
		<path class="st38" d="M409.4,395.5H166.2c-9.6,0-17.3,11.2-17.3,25.1c0,13.9,7.8,25.1,17.3,25.1h243.2c9.6,0,17.3-11.2,17.3-25.1
			C426.7,406.7,419,395.5,409.4,395.5z"/>
		<path class="st39" d="M170.7,408.2c-6.8,0-12.4,5.6-12.4,12.4s5.6,12.4,12.4,12.4c6.8,0,12.4-5.6,12.4-12.4
			S177.5,408.2,170.7,408.2z"/>
		<path class="st40" d="M170.7,414.2c-3.5,0-6.3,2.9-6.3,6.3c0,3.5,2.8,6.3,6.3,6.3c3.5,0,6.3-2.8,6.3-6.3
			C177,417.1,174.2,414.2,170.7,414.2z"/>
		<path class="st39" d="M209.7,408.2c-6.8,0-12.4,5.6-12.4,12.4s5.6,12.4,12.4,12.4c6.8,0,12.4-5.6,12.4-12.4
			S216.5,408.2,209.7,408.2z"/>
		<path class="st40" d="M209.7,414.2c-3.5,0-6.3,2.9-6.3,6.3c0,3.5,2.8,6.3,6.3,6.3c3.5,0,6.3-2.8,6.3-6.3
			C216,417.1,213.2,414.2,209.7,414.2z"/>
		<path class="st39" d="M248.7,408.2c-6.8,0-12.4,5.6-12.4,12.4s5.6,12.4,12.4,12.4c6.8,0,12.4-5.6,12.4-12.4
			S255.5,408.2,248.7,408.2z"/>
		<path class="st40" d="M248.7,414.2c-3.5,0-6.3,2.9-6.3,6.3c0,3.5,2.8,6.3,6.3,6.3c3.5,0,6.3-2.8,6.3-6.3
			C255.1,417.1,252.2,414.2,248.7,414.2z"/>
		<path class="st39" d="M287.7,408.2c-6.8,0-12.4,5.6-12.4,12.4s5.6,12.4,12.4,12.4c6.8,0,12.4-5.6,12.4-12.4
			S294.6,408.2,287.7,408.2z"/>
		<path class="st40" d="M287.7,414.2c-3.5,0-6.3,2.9-6.3,6.3c0,3.5,2.8,6.3,6.3,6.3c3.5,0,6.3-2.8,6.3-6.3
			C294.1,417.1,291.2,414.2,287.7,414.2z"/>
		<path class="st39" d="M326.8,408.2c-6.8,0-12.4,5.6-12.4,12.4s5.6,12.4,12.4,12.4c6.8,0,12.4-5.6,12.4-12.4
			S333.6,408.2,326.8,408.2z"/>
		<path class="st40" d="M326.8,414.2c-3.5,0-6.3,2.9-6.3,6.3c0,3.5,2.8,6.3,6.3,6.3c3.5,0,6.3-2.8,6.3-6.3
			C333.1,417.1,330.3,414.2,326.8,414.2z"/>
		<path class="st39" d="M365.8,408.2c-6.8,0-12.4,5.6-12.4,12.4s5.6,12.4,12.4,12.4c6.8,0,12.4-5.6,12.4-12.4
			S372.6,408.2,365.8,408.2z"/>
		<path class="st40" d="M365.8,414.2c-3.5,0-6.3,2.9-6.3,6.3c0,3.5,2.8,6.3,6.3,6.3c3.5,0,6.3-2.8,6.3-6.3
			C372.1,417.1,369.3,414.2,365.8,414.2z"/>
		<path class="st39" d="M404.8,408.2c-6.8,0-12.4,5.6-12.4,12.4s5.6,12.4,12.4,12.4c6.8,0,12.4-5.6,12.4-12.4
			S411.6,408.2,404.8,408.2z"/>
		<path class="st40" d="M404.8,414.2c-3.5,0-6.3,2.9-6.3,6.3c0,3.5,2.8,6.3,6.3,6.3c3.5,0,6.3-2.8,6.3-6.3
			C411.1,417.1,408.3,414.2,404.8,414.2z"/>
		<path class="st40" d="M426.7,420.6c0-2.9-0.4-5.8-1-8.4l2.1-1.1c-1.4-5.5-3.8-10.2-7.1-13.6l-1.3,2.6c-2.8-2.9-6.3-4.6-10-4.6
			l0-3.2h-10.6v3.2h-10.6v-3.2h-10.6v3.2h-10.6v-3.2h-10.6v3.2h-10.6v-3.2H335v3.2h-10.6v-3.2h-10.6v3.2h-10.6v-3.2h-10.6v3.2h-10.6
			v-3.2h-10.6v3.2h-10.6v-3.2h-10.6v3.2h-10.6v-3.2h-10.6v3.2h-10.6v-3.2h-10.6v3.2h-10.6v-3.2h-10.6v3.2h-10.6v-3.2h-9.3
			c-0.5,0-1,0-1.5,0.1l0.2,3.2c-3.7,0.4-7,2.4-9.7,5.6l-1.4-2.5c-3.1,3.7-5.4,8.7-6.4,14.3l2.1,0.8c-0.4,2.1-0.6,4.4-0.6,6.7
			c0,3,0.4,5.8,1,8.4l-2.1,1.1c1.4,5.5,3.8,10.2,7.1,13.6l1.3-2.6c2.8,2.9,6.3,4.6,10,4.6l0,3.2h10.6v-3.2h10.6v3.2h10.6v-3.2h10.6
			v3.2h10.6v-3.2H230v3.2h10.6v-3.2h10.6v3.2h10.6v-3.2h10.6v3.2h10.6v-3.2h10.6v3.2h10.6v-3.2H315v3.2h10.6v-3.2h10.6v3.2h10.6
			v-3.2h10.6v3.2h10.6v-3.2h10.6v3.2h10.6v-3.2H400v3.2h9.4c0.5,0,0.9,0,1.4-0.1l-0.2-3.2c3.7-0.4,7-2.4,9.7-5.6l1.4,2.5
			c3.1-3.7,5.4-8.7,6.4-14.3l-2.1-0.9C426.5,425.1,426.7,422.9,426.7,420.6z M409.4,441.8H166.2c-8.1,0-14.7-9.5-14.7-21.3
			c0-11.7,6.6-21.3,14.7-21.3h243.2c8.1,0,14.7,9.5,14.7,21.3C424.1,432.3,417.5,441.8,409.4,441.8z"/>
	</g>
	<rect x="170.7" y="373.5" class="st16" width="35.2" height="18.8"/>
	<rect x="234" y="373.5" class="st16" width="35.2" height="18.8"/>
	<rect x="297.4" y="373.5" class="st16" width="35.2" height="18.8"/>
	<rect x="360.8" y="373.5" class="st16" width="35.2" height="18.8"/>
	<g>
		<defs>
			<path id="SVGID_18_" d="M613.7,354.8c0,0,3.8,18.1,2.5,23.1c-1.2,4.9-11.6,13.9-11.6,13.9v-36.2L613.7,354.8z"/>
		</defs>
		<use xlink:href="#SVGID_18_"  style="overflow:visible;fill:#FFACA6;"/>
		<clipPath id="SVGID_19_">
			<use xlink:href="#SVGID_18_"  style="overflow:visible;"/>
		</clipPath>
		<path class="st41" d="M616.1,359.5c0,0-7.3,0.4-6.9,2.4c0.4,2,1.8,13.3,1.4,15c-0.3,1.7-5.1,7.7-5.1,7.7l-1.5-28.6l9.4-1.9
			l1.7,1.9L616.1,359.5z"/>
	</g>
	<g>
		<defs>
			<path id="SVGID_20_" d="M544,353.3c0,0.3-5.7,18.3-2.1,27.1c3.6,8.7,15.5,13.9,15.5,13.9l0.9-11.1c0,0-7.4-2.3-7.1-8.2
				c0.3-6,4.5-20.1,4.5-20.1L544,353.3z"/>
		</defs>
		<use xlink:href="#SVGID_20_"  style="overflow:visible;fill:#FFACA6;"/>
		<clipPath id="SVGID_21_">
			<use xlink:href="#SVGID_20_"  style="overflow:visible;"/>
		</clipPath>
		<path class="st42" d="M539.1,359.4c0,0,11.6-0.2,10.5,5.6s-4.3,14.6,4.1,20.7c8.4,6.1,8.4,3.7,8.4,3.7s0.3-15.5-0.2-16.1
			c-0.5-0.6-0.7-18.3-1.1-20c-0.5-1.7-19-7.1-19-7.1L539.1,359.4z"/>
	</g>
	<g>
		<defs>
			<path id="SVGID_22_" d="M579.7,417.8c0,0-0.9,43.5,5.5,59.7s23,60.3,23,60.3s11.4,4.6,19.2-4.8c0,0-19-44.8-19-62.1
				s2.3-38.6,0.5-48c-1.7-9.4-2.3-14.9-2.3-14.9L579.7,417.8z"/>
		</defs>
		<use xlink:href="#SVGID_22_"  style="overflow:visible;fill:#1E2889;"/>
		<clipPath id="SVGID_23_">
			<use xlink:href="#SVGID_22_"  style="overflow:visible;"/>
		</clipPath>
		<path class="st43" d="M612.2,444.8c0,0-21.3-9.8-18.5,22.4c2.8,32.1,5.6,47.3,5.6,47.3l-17.7-22.1l-4.7-32.4l-4.5-24l4.5-16.2
			l3.5-11.6c0,0,22.6-1.9,22.7-1.9s9.1,7,9.1,7V444.8z"/>
	</g>
	<g>
		<defs>
			<path id="SVGID_24_" d="M556.2,413.4c0,0-5.6,40-4.9,58.4c0.7,18.4,3.6,71.2,3.6,71.2s10.5,5.2,19.7,0c0,0,0.3-42.1,3-59.5
				s12.1-41.5,14.6-52.3c2.5-10.8,1.3-16.4,1.3-16.4L556.2,413.4z"/>
		</defs>
		<use xlink:href="#SVGID_24_"  style="overflow:visible;fill:#1E2889;"/>
		<clipPath id="SVGID_25_">
			<use xlink:href="#SVGID_24_"  style="overflow:visible;"/>
		</clipPath>
		<path class="st44" d="M552.5,426.9c0,0,17.4,0.8,17.1,17.9c-0.3,17.1-3.1,38.4-1.1,56.5c2.1,18,8.4,31.7,8.4,31.7
			s11.7-41.7,13-43.2c1.3-1.6,13.6-30.6,13.2-33.6c-0.4-3-3.7-37.5-3.7-37.5l-10.9-6.1l-32.3,0.9L552.5,426.9z"/>
	</g>
	<g>
		<path class="st45" d="M584.4,309.6c-0.5-1.7-1-4.2-1.1-8.1l-11.7-0.4c0,0,0.1,1.7,0,3.8C574.4,304.8,579.6,305.4,584.4,309.6z"/>
		<path class="st46" d="M584.4,309.6c-4.8-4.2-10-4.8-12.7-4.7c-0.2,3.1-1,7.2-3.7,8.9l6.3,4.1c0,0,6.4-2.1,7.1-2.3
			c0.7-0.1,4.4-1.7,4.4-1.7l0.9-1C586.7,312.8,585.4,312.7,584.4,309.6z"/>
	</g>
	<g>
		<defs>
			<path id="SVGID_26_" d="M577.3,315.2c-5.7,0-9.2-1.6-9.2-1.6s-11.8-0.3-18.3,7.9c-6.5,8.2-10.8,27.7-10.8,27.7s5.4,13,18.4,6.2
				l-1.7,58.8c0,0,27.2,19.9,51.6-2.5l-1.9-55.8c0,0,6.6,1.7,9.4-1.7c0,0-3.7-27-7.9-32.9c-6.1-8.6-20.2-8.5-20.2-8.5
				S582.9,315.2,577.3,315.2z"/>
		</defs>
		<use xlink:href="#SVGID_26_"  style="overflow:visible;fill:#006DFE;"/>
		<clipPath id="SVGID_27_">
			<use xlink:href="#SVGID_26_"  style="overflow:visible;"/>
		</clipPath>
		<path class="st47" d="M558.4,329.6c0,0,2.2,7.7-0.9,25.9c-3.2,18.2,0,0,0,0l-6.3,3.8l-3.5-0.6
			C547.7,358.7,557.6,339.9,558.4,329.6z"/>
		<path class="st48" d="M605.4,356c0,0,1.9-30.9-1.6-38.1c-3.5-7.2,0,0,0,0l6.1,3.4l2.5,9.5l2.3,14.1l1.8,8.4l-2.3,3.8l-5.7,0.7
			L605.4,356"/>
		<path class="st47" d="M563.1,419.8c0,0,14.9,1.3,23.9-14.8c9.1-16.1,18.7-52.1,18.8-71l-0.2,28.5l2.6,53.9l-16.8,10.9L563.1,419.8
			z"/>
	</g>
	<g>
		<defs>
			<path id="SVGID_28_" d="M234.2,297c0,0,1.7,6.1-1.5,10c0,0,2.1,2.9,6.7,2.6c4.6-0.3,4.6-3.2,4.6-3.2s-2.7-1.4-2.1-9.3H234.2z"/>
		</defs>
		<use xlink:href="#SVGID_28_"  style="overflow:visible;fill:#FFACA6;"/>
		<clipPath id="SVGID_29_">
			<use xlink:href="#SVGID_28_"  style="overflow:visible;"/>
		</clipPath>
		<path class="st49" d="M233.7,301.8c0,0,7,0.1,9.6,2.8c0,0-0.4-8.2-0.1-8.2c0.2,0-10.5-1.1-10.5-1.1L233.7,301.8z"/>
	</g>
	<path class="st40" d="M224.1,276.5c0,0,1.1,14.7,4.2,16.2h19.5c0,0,5.8-6.6,5.3-15.4l-17.7-7L224.1,276.5z"/>
	<path class="st45" d="M226.6,282.4c0,0-3.3,0.4-2.9,3.4c0.4,2.9,2.7,4.9,4.3,3.9L226.6,282.4z"/>
	<path class="st45" d="M249.9,282.4c0,0,3.3,0.4,2.9,3.4c-0.4,2.9-2.7,4.9-4.3,3.9L249.9,282.4z"/>
	<g>
		<defs>
			<path id="SVGID_30_" d="M226.2,277.1c0,0-1.5,17.6,7.7,22.2c9.2,4.6,14.6-6.6,15.5-11.1c0.9-4.5,1.1-11.7,1.1-11.7l-8.6-2.6
				h-11.7L226.2,277.1z"/>
		</defs>
		<use xlink:href="#SVGID_30_"  style="overflow:visible;fill:#FFACA6;"/>
		<clipPath id="SVGID_31_">
			<use xlink:href="#SVGID_30_"  style="overflow:visible;"/>
		</clipPath>
		<path class="st50" d="M225.8,284.7c0,0,4.2,2.6,12.2,2.4c8-0.3,12.7-2.1,12.7-2.1l1-5.9c0,0-0.2-4.2-0.4-4.3s-23.3-1.5-23.3-1.5
			l-2.7,3.3l1,5.3L225.8,284.7z"/>
	</g>
	<g>
		<g>
			<path class="st17" d="M234.1,276.4c-1.1-5.7-2.7-11.3-4.6-16.8c-0.2,0.1-0.4,0.2-0.6,0.4c-4.2,3-6.9,8-6.9,13.6
				c0,0.6,0,1.1,0.1,1.6c0,0,0,0,0,0C226.1,275.8,230.1,276.2,234.1,276.4z"/>
			<path class="st51" d="M238.5,276.5c-0.1,0-0.1,0-0.2,0C238.3,276.5,238.4,276.5,238.5,276.5z"/>
			<path class="st17" d="M242.5,276.4c4-0.2,8.1-0.6,12.1-1.2c0,0,0,0,0,0c0.1-0.5,0.1-1.1,0.1-1.6c0-5.6-2.7-10.6-6.9-13.6
				c-0.2-0.1-0.4-0.2-0.6-0.4c0,0,0,0.1,0,0.1C245.2,265.2,243.5,270.7,242.5,276.4z"/>
			<path class="st33" d="M254.6,275.2C254.6,275.2,254.6,275.2,254.6,275.2c-4,0.7-8.1,1.1-12.1,1.2c1-5.7,2.7-11.2,4.7-16.7
				c0,0,0-0.1,0-0.1c0.1-0.4-0.1-0.9-0.5-1.1c-5.1-2.8-11.5-2.8-16.7-0.2c-0.4,0.2-0.7,0.8-0.5,1.2c0,0,0,0,0,0
				c1.9,5.5,3.5,11.1,4.6,16.8c-4-0.2-8.1-0.6-12-1.2c0,0,0,0,0,0c-0.4-0.1-0.6,0.2-0.6,0.6c0,0.6,0,1.1,0,1.7
				c0,0.4,0.3,0.7,0.7,0.8c0.2,0,0.4,0.1,0.6,0.1c0-0.2,0-0.4,0-0.5c0-0.2,0-0.2,0-0.4c2.8,0.2,5.5,0.7,8.2,1c2.5,0.2,5,0.2,7.5,0.2
				c2.4,0,4.7,0,7.1-0.2c2.9-0.2,5.8-0.8,8.7-1c0,0.2,0,0.2,0,0.4c0,0.2,0,0.4,0,0.5c0.2,0,0.4-0.1,0.6-0.1c0.4-0.1,0.6-0.4,0.7-0.8
				c0-0.6,0-1.1,0-1.7C255.3,275.3,255,275.1,254.6,275.2z M238.5,276.5c-0.1,0-0.1,0-0.2,0C238.3,276.5,238.4,276.5,238.5,276.5z"
				/>
			<path class="st17" d="M254.1,277.3c-2.9,0.2-5.8,0.8-8.7,1c-2.3,0.2-4.7,0.2-7.1,0.2c-2.5,0-5,0-7.5-0.2c-2.8-0.3-5.5-0.8-8.2-1
				c0,0.2,0,0.2,0,0.4c0,0.2,0,0.4,0,0.5c0.3,1.7,1.6,3.5,3.3,4c8,2.4,16.9,2.4,24.8,0c1.6-0.5,3-2.2,3.3-4c0-0.2,0-0.4,0-0.5
				C254.1,277.6,254.1,277.5,254.1,277.3z"/>
		</g>
		<path class="st17" d="M231.8,258.3c-0.3,0.1-1.4,0.5-1.4,1c0.1,0.6,1.9,6.2,2.7,9.1c0.8,2.9,1.4,7.8,2,8c0.6,0.2,5.5,0.2,6.2,0
			c0.7-0.2,0.7-0.7,1-2.1c0.3-1.4,2-9.8,4-14.2c0.2-0.6,0.2-1.1-1.1-1.5c-1.3-0.4-3.2-1.2-5.5-1.3
			C237.4,257.3,235.1,257.4,231.8,258.3z"/>
	</g>
	<path class="st16" d="M563.6,289.8c0,0,3.8,8.1,7.3,12.3h13.4c0,0,6-7.1,7.1-13l-8.4,3.5l-16.4-2.3L563.6,289.8z"/>
	<g>
		<path class="st33" d="M557.5,276.7H557c0,0-1.8-0.4-2.3,1c-0.5,1.4,0.6,5.8,3.2,8.8c2.6,3,7.9,5.8,12.3,6.8
			c4.4,1,12.5,1.5,18.6-0.9s8.4-6,9.6-8.2c1.2-2.2,2-4.8-2-4.6l-6.9,5.7l-21.9-0.9L557.5,276.7z"/>
		<path class="st17" d="M557,276.7c0,0,0.9-8.1,5.9-13.7c5-5.6,10.2-6.9,17.2-6.7s12.2,5.8,14.5,13c2.3,7.2,1.6,10.3,1.6,10.3
			s-4.2,11.4-18.1,10.1C564.1,288.4,558.7,281.6,557,276.7z"/>
		<path class="st33" d="M575.3,289.8c0,0,0.2-8.7,0-13.5c-0.2-4.9-2.6-17.8-4.4-18.8c-1.7-1,0.7-1.9,3.2-2.3
			c2.5-0.4,8.6-0.3,12.1,1.4c1.2,0.6-0.3,1.4-0.3,1.4s-3.7,10.8-3.6,18.4c0.2,7.5,0.7,14.1,0.7,14.1S577.3,291.3,575.3,289.8z"/>
	</g>
	<rect x="641.3" y="437.7" class="st12" width="40.4" height="17.9"/>
	<rect x="657.6" y="455.6" class="st14" width="40.4" height="17.9"/>
</g>
</svg>
